Coordinates
version=1
nRows=13
nColumns=34
inDegrees=yes

Units are S.I. units (second, meters, Newtons, ...)
If the header above contains a line with 'inDegrees', this indicates whether rotational values are in degrees (yes) or radians (no).

endheader
time	pelvis_tilt	pelvis_list	pelvis_rotation	pelvis_tx	pelvis_ty	pelvis_tz	hip_flexion_r	hip_adduction_r	hip_rotation_r	knee_angle_r	ankle_angle_r	subtalar_angle_r	mtp_angle_r	hip_flexion_l	hip_adduction_l	hip_rotation_l	knee_angle_l	ankle_angle_l	subtalar_angle_l	mtp_angle_l	lumbar_extension	lumbar_bending	lumbar_rotation	arm_flex_r	arm_add_r	arm_rot_r	elbow_flex_r	pro_sup_r	arm_flex_l	arm_add_l	arm_rot_l	elbow_flex_l	pro_sup_l
     10.84166670	      4.10802924	      0.63850233	   -176.26548281	      0.10952566	      1.08561838	      0.15007610	    -22.93939739	      4.70139508	      6.29146661	     32.15410318	    -21.42085639	    -14.93459220	      0.00000000	     48.64996208	      1.00731765	     -2.52001134	     42.32527828	    -15.15978956	    -10.61028673	      0.00000000	    -11.01761926	      5.98891674	     13.38668022	      9.37786805	    -26.77491127	     10.52062219	    108.66330943	     97.92322962	    -40.97093114	    -23.35374068	     -5.54438753	     94.80708440	     89.92252523
     10.85000000	      3.64437343	      1.51938155	   -176.19849328	      0.10812732	      1.08669542	      0.14965354	    -23.63525175	      6.03590801	      8.22340406	     36.17859074	    -20.76727085	    -17.27850522	      0.00000000	     46.51045327	      0.35069316	     -3.26236039	     34.85408161	    -16.10188835	     -6.72517989	      0.00000000	    -11.13016322	      6.84812209	     13.88722382	      9.09487318	    -26.94172061	     10.56724593	    108.76820151	     97.90141007	    -41.00782819	    -23.34760051	     -5.82870566	     94.94552346	     89.81909119
     10.85833330	      2.92697607	      2.54932847	   -176.36977522	      0.10671207	      1.08625199	      0.14917094	    -24.28315888	      7.41823461	      9.82036726	     40.86557889	    -20.06069467	    -19.53549487	      0.00000000	     44.22005803	     -0.52515533	     -4.15849801	     28.32875982	    -16.86415405	     -2.58531124	      0.00000000	    -11.65171428	      7.76945121	     14.47158435	      8.61904499	    -27.42513770	     10.95190998	    109.35285274	     97.85385036	    -40.89777433	    -23.13778926	     -6.14846964	     95.17547390	     89.66558689
     10.86666670	      2.19331920	      3.61577699	   -176.66432836	      0.10571069	      1.08462872	      0.14874582	    -24.59483877	      8.65667644	     10.73269764	     46.15869306	    -19.13140693	    -21.47918881	      0.00000000	     42.15116260	     -1.43478865	     -5.04415167	     23.00557947	    -17.67550013	      1.30482320	      0.00000000	    -12.29521275	      8.71728890	     15.11319226	      8.07034247	    -28.07121253	     11.88698622	    111.06829208	     97.78066451	    -40.68666908	    -22.82822480	     -6.53645130	     95.60818080	     89.47983333
     10.87500000	      1.54285640	      4.58967729	   -177.04302588	      0.10501524	      1.08230451	      0.14809531	    -24.50879808	      9.65488428	     11.12139195	     51.88801469	    -18.58008481	    -23.44105912	      0.00000000	     40.42457106	     -2.26835231	     -5.80539205	     18.96120164	    -18.42636790	      4.58029381	      0.00000000	    -12.98430604	      9.55124640	     15.71517728	      7.39259529	    -28.80533647	     13.25229591	    113.54264728	     97.67382069	    -40.26837296	    -22.46215010	     -6.97183828	     96.08001974	     89.27050546
     10.88333330	      1.06999469	      5.40505337	   -177.39622943	      0.10446990	      1.07919697	      0.14764333	    -23.87165577	     10.46778531	     11.03299925	     57.97520581	    -17.95340023	    -25.12342401	      0.00000000	     39.08544567	     -2.91450894	     -6.26915744	     16.08342348	    -19.09953279	      7.08418982	      0.00000000	    -13.65550524	     10.15697035	     16.26869948	      6.62262760	    -29.48694150	     14.78957638	    116.08935605	     97.54058752	    -39.52566735	    -22.04464763	     -7.41409588	     96.43927005	     89.05698285
     10.89166670	      0.79949658	      5.93628031	   -177.70476316	      0.10414581	      1.07514418	      0.14748910	    -22.70596222	     10.90092013	     10.46590017	     64.45063303	    -17.59345979	    -26.85211554	      0.00000000	     38.08278109	     -3.24605449	     -6.40244155	     14.24471659	    -19.34954503	      8.90324766	      0.00000000	    -14.20333767	     10.38776028	     16.66153420	      5.73224122	    -30.05548940	     16.39700076	    118.45149786	     97.37795057	    -38.45659915	    -21.66429582	     -7.79852433	     96.64720405	     88.83383317
     10.90000000	      0.69955656	      6.18882532	   -177.91143112	      0.10457941	      1.07052843	      0.14687201	    -21.05164952	     11.04928874	      9.52173489	     71.12895964	    -17.40096098	    -28.41460750	      0.00000000	     37.35949373	     -3.28699060	     -6.35717390	     13.32531944	    -19.38589864	     10.08150132	      0.00000000	    -14.66554498	     10.26197171	     16.86250087	      4.81697667	    -30.39941246	     17.81604326	    120.05236760	     97.20472793	    -37.00938734	    -21.35910063	     -8.13294247	     96.74644796	     88.61915590
     10.90833330	      0.73790340	      6.27486252	   -178.12795396	      0.10555828	      1.06553947	      0.14594892	    -18.96157196	     10.98292143	      8.45505428	     77.92620873	    -17.16654729	    -29.59174846	      0.00000000	     36.82179200	     -3.22710001	     -6.06896925	     13.21057807	    -19.06199522	     10.69607809	      0.00000000	    -15.08624355	      9.87821071	     16.88515146	      3.88326660	    -30.67787287	     18.87956698	    120.81608863	     96.95946342	    -35.21215936	    -21.07918520	     -8.35245101	     96.69945040	     88.37373252
     10.91666670	      1.14326523	      6.37951602	   -178.25104474	      0.10679204	      1.05945428	      0.14514315	    -16.23843049	     10.81580433	      7.19808830	     84.75410589	    -16.87336586	    -30.24663424	      0.00000000	     36.80189584	     -3.13598395	     -5.53791359	     14.05201645	    -18.44953781	     10.65216495	      0.00000000	    -14.98168438	      9.60479045	     16.85256892	      2.59827268	    -30.72393182	     19.00071843	    120.68463392	     95.98517272	    -32.87920655	    -21.07849947	     -7.81274726	     96.16952199	     87.66272444
     10.92500000	      1.13228132	      6.06970339	   -178.26627930	      0.10816331	      1.05383125	      0.14379420	    -13.93009529	     10.13917953	      5.89529917	     91.28061811	    -16.61588392	    -30.53733993	      0.00000000	     36.23339618	     -2.68496205	     -5.09754995	     15.48364708	    -17.35433443	      9.91924107	      0.00000000	    -15.47178434	      8.58207907	     16.22181035	      1.72762711	    -30.67917965	     19.16950620	    119.50245082	     95.72671536	    -30.70977472	    -20.99779691	     -8.05793393	     96.24042997	     87.43393592
     10.93333330	      1.57126549	      5.81275005	   -178.12175284	      0.10919199	      1.04679223	      0.14247361	    -11.21734219	      9.46719882	      4.60727370	     97.46475390	    -15.52686654	    -29.53810035	      0.00000000	     36.21537821	     -2.20659145	     -4.61327817	     17.73028017	    -15.97441948	      8.39891264	      0.00000000	    -15.18999400	      7.67717672	     15.18418506	      0.80770026	    -30.24287992	     18.55797165	    117.23113881	     95.24575255	    -28.42116313	    -21.08894341	     -8.00594007	     96.06316812	     87.09194590
     10.94166670	      1.88991029	      5.47309298	   -177.75627687	      0.11003353	      1.03994389	      0.14107104	     -8.63345989	      8.73942196	      3.31918965	    103.00371052	    -14.79320082	    -28.73125382	      0.00000000	     35.99579962	     -1.56915602	     -4.33075073	     20.57352946	    -13.91482723	      6.73512666	      0.00000000	    -15.08880732	      6.58033127	     13.79906137	     -0.11905976	    -29.65713213	     17.77033329	    114.67631756	     94.76030898	    -26.06551321	    -21.40482736	     -7.89043057	     96.05501546	     86.75785364
